<svg width="226" height="24" viewBox="0 0 226 24" fill="none" xmlns="http://www.w3.org/2000/svg">
<g clip-path="url(#clip0)">
<path d="M-2.40413e-07 12.25C-1.20874e-07 14.9847 2.24711 17.2871 5 17.75L12.3568 17.75C12.9091 17.75 13.3568 17.3023 13.3568 16.75V16.75C13.3568 16.1977 12.9112 15.75 12.3589 15.75C10.7135 15.75 7.45662 15.75 5.87755 15.75C3.7135 15.75 2 14.2955 2 12.25C2 10.2045 3.7135 8.25 5.87755 8.25C8.04161 8.25 8 8.25 8 8.25C8.41086 8.25 8.31589 8.67644 8.2798 9.08571L8.16149 10.4277C8.09442 11.1885 9.12047 11.4916 9.47754 10.8165L11.2321 7.4997C11.4787 7.03351 11.1407 6.25 10.6133 6.25L5.87755 6.25C2.63147 6.25 -3.7453e-07 9.18175 -2.40413e-07 12.25Z" fill="black"/>
<path d="M26.7136 11.75C26.7136 9.01528 24.4665 6.71289 21.7136 6.25L14.3568 6.25C13.8045 6.25 13.3568 6.69772 13.3568 7.25V7.25C13.3568 7.80228 13.8025 8.25 14.3548 8.25C16.0002 8.25 19.257 8.25 20.8361 8.25C23.0001 8.25 24.7136 9.7045 24.7136 11.75C24.7136 13.7955 23.0001 15.75 20.8361 15.75C18.672 15.75 18.7136 15.75 18.7136 15.75C18.3028 15.75 18.3977 15.3236 18.4338 14.9143L18.5521 13.5723C18.6192 12.8115 17.5932 12.5084 17.2361 13.1835L15.4815 16.5003C15.2349 16.9665 15.5729 17.75 16.1003 17.75L20.8361 17.75C24.0822 17.75 26.7136 14.8182 26.7136 11.75Z" fill="black"/>
<path d="M34.7136 17.672V6.168H36.9056V11.032C37.1616 10.52 37.5136 10.1413 37.9616 9.896C38.4096 9.64 38.9163 9.512 39.4816 9.512C40.3136 9.512 41.0016 9.75733 41.5456 10.248C42.0896 10.728 42.3616 11.4533 42.3616 12.424V17.672H40.1696V13.064C40.1696 12.3707 40.0363 11.896 39.7696 11.64C39.503 11.3733 39.1616 11.24 38.7456 11.24C38.4363 11.24 38.143 11.3147 37.8656 11.464C37.5883 11.6027 37.359 11.8373 37.1776 12.168C36.9963 12.488 36.9056 12.9147 36.9056 13.448V17.672H34.7136Z" fill="black"/>
<path d="M48.2679 9.512C49.0679 9.512 49.7772 9.67733 50.3959 10.008C51.0145 10.3387 51.4945 10.8133 51.8359 11.432C52.1879 12.0507 52.3639 12.7973 52.3639 13.672C52.3639 14.5467 52.1879 15.2933 51.8359 15.912C51.4945 16.5307 51.0145 17.0053 50.3959 17.336C49.7772 17.6667 49.0679 17.832 48.2679 17.832C47.4572 17.832 46.7425 17.6667 46.1239 17.336C45.5159 17.0053 45.0359 16.5307 44.6839 15.912C44.3425 15.2933 44.1719 14.5467 44.1719 13.672C44.1719 12.7973 44.3425 12.0507 44.6839 11.432C45.0359 10.8133 45.5159 10.3387 46.1239 10.008C46.7425 9.67733 47.4572 9.512 48.2679 9.512ZM48.2679 11.144C47.6705 11.144 47.2012 11.3573 46.8599 11.784C46.5292 12.2 46.3639 12.8293 46.3639 13.672C46.3639 14.5147 46.5292 15.1493 46.8599 15.576C47.2012 15.992 47.6705 16.2 48.2679 16.2C48.8545 16.2 49.3132 15.992 49.6439 15.576C49.9852 15.1493 50.1559 14.5147 50.1559 13.672C50.1559 12.8293 49.9852 12.2 49.6439 11.784C49.3132 11.3573 48.8545 11.144 48.2679 11.144Z" fill="black"/>
<path d="M57.846 9.512C58.646 9.512 59.3553 9.67733 59.974 10.008C60.5927 10.3387 61.0727 10.8133 61.414 11.432C61.766 12.0507 61.942 12.7973 61.942 13.672C61.942 14.5467 61.766 15.2933 61.414 15.912C61.0727 16.5307 60.5927 17.0053 59.974 17.336C59.3553 17.6667 58.646 17.832 57.846 17.832C57.0353 17.832 56.3207 17.6667 55.702 17.336C55.094 17.0053 54.614 16.5307 54.262 15.912C53.9207 15.2933 53.75 14.5467 53.75 13.672C53.75 12.7973 53.9207 12.0507 54.262 11.432C54.614 10.8133 55.094 10.3387 55.702 10.008C56.3207 9.67733 57.0353 9.512 57.846 9.512ZM57.846 11.144C57.2487 11.144 56.7793 11.3573 56.438 11.784C56.1073 12.2 55.942 12.8293 55.942 13.672C55.942 14.5147 56.1073 15.1493 56.438 15.576C56.7793 15.992 57.2487 16.2 57.846 16.2C58.4327 16.2 58.8913 15.992 59.222 15.576C59.5633 15.1493 59.734 14.5147 59.734 13.672C59.734 12.8293 59.5633 12.2 59.222 11.784C58.8913 11.3573 58.4327 11.144 57.846 11.144Z" fill="black"/>
<path d="M65.9681 6.168V13.32L69.4241 9.672H71.9201L68.9121 12.808L72.1121 17.672H69.6321L67.4241 14.136L65.9681 15.688V17.672H63.7761V6.168H65.9681Z" fill="black"/>
<path d="M76.0345 17.832C75.3732 17.832 74.7812 17.6667 74.2585 17.336C73.7465 17.0053 73.3412 16.536 73.0425 15.928C72.7545 15.3093 72.6105 14.5627 72.6105 13.688C72.6105 12.8027 72.7652 12.0507 73.0745 11.432C73.3838 10.8027 73.7998 10.328 74.3225 10.008C74.8558 9.67733 75.4532 9.512 76.1145 9.512C76.6905 9.512 77.1865 9.65067 77.6025 9.928C78.0185 10.2053 78.3332 10.5733 78.5465 11.032V6.168H80.7385V17.672H78.7705L78.6745 16.12C78.4505 16.6533 78.1038 17.0747 77.6345 17.384C77.1652 17.6827 76.6318 17.832 76.0345 17.832ZM76.6745 16.152C77.2398 16.152 77.6932 15.9333 78.0345 15.496C78.3758 15.048 78.5465 14.4187 78.5465 13.608C78.5465 12.84 78.3758 12.248 78.0345 11.832C77.7038 11.4053 77.2612 11.192 76.7065 11.192C76.1092 11.192 75.6398 11.4053 75.2985 11.832C74.9678 12.248 74.8025 12.8613 74.8025 13.672C74.8025 14.4827 74.9678 15.1013 75.2985 15.528C75.6292 15.944 76.0878 16.152 76.6745 16.152Z" fill="black"/>
<path d="M86.7537 17.832C85.4951 17.832 84.4871 17.4693 83.7297 16.744C82.9724 16.008 82.5937 14.984 82.5937 13.672C82.5937 12.7973 82.7644 12.0507 83.1057 11.432C83.4471 10.8133 83.9217 10.3387 84.5297 10.008C85.1484 9.67733 85.8524 9.512 86.6417 9.512C87.4524 9.512 88.1404 9.67733 88.7057 10.008C89.2711 10.328 89.7031 10.7707 90.0017 11.336C90.3004 11.8907 90.4497 12.5253 90.4497 13.24C90.4497 13.4533 90.4444 13.656 90.4337 13.848C90.4231 14.04 90.4071 14.2107 90.3857 14.36H84.7377C84.8231 14.9787 85.0364 15.4427 85.3777 15.752C85.7297 16.0507 86.1831 16.2 86.7377 16.2C87.2071 16.2 87.5857 16.1093 87.8737 15.928C88.1617 15.7467 88.3857 15.496 88.5457 15.176L90.2897 15.848C90.0337 16.4773 89.5857 16.968 88.9457 17.32C88.3057 17.6613 87.5751 17.832 86.7537 17.832ZM86.6257 11.128C85.5911 11.128 84.9671 11.6987 84.7537 12.84H88.3537C88.2897 12.2853 88.1084 11.864 87.8097 11.576C87.5217 11.2773 87.1271 11.128 86.6257 11.128Z" fill="black"/>
<path d="M95.9394 9.512C97.006 9.512 97.8327 9.74133 98.4194 10.2C99.0167 10.6587 99.4114 11.2133 99.6034 11.864L97.5554 12.6C97.342 11.6293 96.814 11.144 95.9714 11.144C95.3634 11.144 94.8887 11.3573 94.5474 11.784C94.2167 12.2107 94.0514 12.8453 94.0514 13.688C94.0514 14.5413 94.222 15.176 94.5634 15.592C94.9154 15.9973 95.39 16.2 95.9874 16.2C96.9154 16.2 97.47 15.7253 97.6514 14.776L99.6354 15.416C99.454 16.1307 99.0487 16.712 98.4194 17.16C97.8007 17.608 96.9954 17.832 96.0034 17.832C95.1714 17.832 94.4407 17.6667 93.8114 17.336C93.1927 17.0053 92.7127 16.5307 92.3714 15.912C92.03 15.2933 91.8594 14.5467 91.8594 13.672C91.8594 12.7973 92.03 12.0507 92.3714 11.432C92.7234 10.8133 93.2034 10.3387 93.8114 10.008C94.43 9.67733 95.1394 9.512 95.9394 9.512Z" fill="black"/>
<path d="M103.531 6.168V13.32L106.987 9.672H109.483L106.475 12.808L109.675 17.672H107.195L104.987 14.136L103.531 15.688V17.672H101.339V6.168H103.531Z" fill="black"/>
</g>
<line x1="118.175" y1="2.18557e-08" x2="118.175" y2="24" stroke="#EDEEF0"/>
<path d="M125.675 17.7273H127.084V13.4773H129.629C132.339 13.4773 133.561 11.8295 133.561 9.77273C133.561 7.71591 132.339 6.09091 129.606 6.09091H125.675V17.7273ZM127.084 12.2273V7.34091H129.561C131.453 7.34091 132.175 8.375 132.175 9.77273C132.175 11.1705 131.453 12.2273 129.584 12.2273H127.084Z" fill="black"/>
<path d="M135.649 17.7273H136.99V12.2045C136.99 11.0227 137.922 10.1591 139.194 10.1591C139.552 10.1591 139.922 10.2273 140.013 10.25V8.88636C139.859 8.875 139.507 8.86364 139.308 8.86364C138.263 8.86364 137.354 9.45454 137.035 10.3182H136.944V9H135.649V17.7273Z" fill="black"/>
<path d="M144.882 17.9091C147.246 17.9091 148.836 16.1136 148.836 13.4091C148.836 10.6818 147.246 8.88636 144.882 8.88636C142.518 8.88636 140.927 10.6818 140.927 13.4091C140.927 16.1136 142.518 17.9091 144.882 17.9091ZM144.882 16.7045C143.086 16.7045 142.268 15.1591 142.268 13.4091C142.268 11.6591 143.086 10.0909 144.882 10.0909C146.677 10.0909 147.496 11.6591 147.496 13.4091C147.496 15.1591 146.677 16.7045 144.882 16.7045Z" fill="black"/>
<path d="M154.179 17.9091C155.861 17.9091 156.429 16.8636 156.724 16.3864H156.883V17.7273H158.179V6.09091H156.838V10.3864H156.724C156.429 9.93182 155.906 8.88636 154.202 8.88636C151.997 8.88636 150.474 10.6364 150.474 13.3864C150.474 16.1591 151.997 17.9091 154.179 17.9091ZM154.361 16.7045C152.679 16.7045 151.815 15.2273 151.815 13.3636C151.815 11.5227 152.656 10.0909 154.361 10.0909C155.997 10.0909 156.861 11.4091 156.861 13.3636C156.861 15.3409 155.974 16.7045 154.361 16.7045Z" fill="black"/>
<path d="M166.321 14.1591C166.321 15.7955 165.071 16.5455 164.071 16.5455C162.957 16.5455 162.162 15.7273 162.162 14.4545V9H160.821V14.5455C160.821 16.7727 162.003 17.8409 163.639 17.8409C164.957 17.8409 165.821 17.1364 166.23 16.25H166.321V17.7273H167.662V9H166.321V14.1591Z" fill="black"/>
<path d="M173.663 17.9091C175.595 17.9091 176.868 16.7273 177.095 15.1818H175.754C175.504 16.1364 174.709 16.7045 173.663 16.7045C172.072 16.7045 171.05 15.3864 171.05 13.3636C171.05 11.3864 172.095 10.0909 173.663 10.0909C174.845 10.0909 175.55 10.8182 175.754 11.6136H177.095C176.868 9.97727 175.481 8.88636 173.64 8.88636C171.277 8.88636 169.709 10.75 169.709 13.4091C169.709 16.0227 171.209 17.9091 173.663 17.9091Z" fill="black"/>
<path d="M182.851 9H180.987V6.90909H179.646V9H178.328V10.1364H179.646V15.5909C179.646 17.1136 180.873 17.8409 182.01 17.8409C182.51 17.8409 182.828 17.75 183.01 17.6818L182.737 16.4773C182.623 16.5 182.442 16.5455 182.146 16.5455C181.555 16.5455 180.987 16.3636 180.987 15.2273V10.1364H182.851V9Z" fill="black"/>
<path d="M192.609 17.7273C196.155 17.7273 198.155 15.5227 198.155 11.8864C198.155 8.27273 196.155 6.09091 192.768 6.09091H189.018V17.7273H192.609ZM190.427 16.4773V7.34091H192.677C195.405 7.34091 196.791 9.06818 196.791 11.8864C196.791 14.7273 195.405 16.4773 192.518 16.4773H190.427Z" fill="black"/>
<path d="M203.882 17.9091C206.246 17.9091 207.836 16.1136 207.836 13.4091C207.836 10.6818 206.246 8.88636 203.882 8.88636C201.518 8.88636 199.927 10.6818 199.927 13.4091C199.927 16.1136 201.518 17.9091 203.882 17.9091ZM203.882 16.7045C202.086 16.7045 201.268 15.1591 201.268 13.4091C201.268 11.6591 202.086 10.0909 203.882 10.0909C205.677 10.0909 206.496 11.6591 206.496 13.4091C206.496 15.1591 205.677 16.7045 203.882 16.7045Z" fill="black"/>
<path d="M213.429 17.9091C215.361 17.9091 216.633 16.7273 216.861 15.1818H215.52C215.27 16.1364 214.474 16.7045 213.429 16.7045C211.838 16.7045 210.815 15.3864 210.815 13.3636C210.815 11.3864 211.861 10.0909 213.429 10.0909C214.611 10.0909 215.315 10.8182 215.52 11.6136H216.861C216.633 9.97727 215.247 8.88636 213.406 8.88636C211.042 8.88636 209.474 10.75 209.474 13.4091C209.474 16.0227 210.974 17.9091 213.429 17.9091Z" fill="black"/>
<path d="M225.003 10.9545C224.582 9.71591 223.639 8.88636 221.912 8.88636C220.071 8.88636 218.707 9.93182 218.707 11.4091C218.707 12.6136 219.423 13.4205 221.025 13.7955L222.48 14.1364C223.361 14.3409 223.775 14.7614 223.775 15.3636C223.775 16.1136 222.98 16.7273 221.73 16.7273C220.633 16.7273 219.946 16.2557 219.707 15.3182L218.435 15.6364C218.747 17.1193 219.969 17.9091 221.753 17.9091C223.781 17.9091 225.162 16.8011 225.162 15.2955C225.162 14.0795 224.4 13.3125 222.844 12.9318L221.548 12.6136C220.514 12.358 220.048 12.0114 220.048 11.3409C220.048 10.5909 220.844 10.0455 221.912 10.0455C223.082 10.0455 223.565 10.6932 223.798 11.2955L225.003 10.9545Z" fill="black"/>
<defs>
<clipPath id="clip0">
<rect width="109.675" height="11.664" fill="white" transform="translate(0 6.168)"/>
</clipPath>
</defs>
</svg>
