<svg width="149" height="19" viewBox="0 0 149 19" fill="none" xmlns="http://www.w3.org/2000/svg">
<path d="M-2.40413e-07 9.75C-1.20874e-07 12.4847 2.24711 14.7871 5 15.25L12.3568 15.25C12.9091 15.25 13.3568 14.8023 13.3568 14.25C13.3568 13.6977 12.9111 13.25 12.3589 13.25C10.7135 13.25 7.45662 13.25 5.87755 13.25C3.7135 13.25 2 11.7955 2 9.75C2 7.7045 3.7135 5.75 5.87755 5.75C8.0416 5.75 8 5.75 8 5.75C8.41086 5.75 8.31589 6.17644 8.2798 6.58571L8.16149 7.92775C8.09442 8.68845 9.12047 8.99156 9.47754 8.31653L11.2321 4.9997C11.4787 4.53351 11.1407 3.75 10.6133 3.75L5.87755 3.75C2.63147 3.75 -3.7453e-07 6.68175 -2.40413e-07 9.75Z" fill="black"/>
<path d="M26.7136 9.25C26.7136 6.51528 24.4665 4.21289 21.7136 3.75L14.3568 3.75C13.8045 3.75 13.3568 4.19772 13.3568 4.75C13.3568 5.30228 13.8025 5.75 14.3548 5.75C16.0002 5.75 19.257 5.75 20.8361 5.75C23.0001 5.75 24.7136 7.2045 24.7136 9.25C24.7136 11.2955 23.0001 13.25 20.8361 13.25C18.672 13.25 18.7136 13.25 18.7136 13.25C18.3028 13.25 18.3977 12.8236 18.4338 12.4143L18.5521 11.0723C18.6192 10.3115 17.5932 10.0084 17.2361 10.6835L15.4815 14.0003C15.2349 14.4665 15.5729 15.25 16.1003 15.25L20.8361 15.25C24.0822 15.25 26.7136 12.3182 26.7136 9.25Z" fill="black"/>
<path d="M35.8656 15V3.496H38.0576V8.36C38.3136 7.848 38.6656 7.46933 39.1136 7.224C39.5616 6.968 40.0683 6.84 40.6336 6.84C41.4656 6.84 42.1536 7.08533 42.6976 7.576C43.2416 8.056 43.5136 8.78133 43.5136 9.752V15H41.3216V10.392C41.3216 9.69867 41.1883 9.224 40.9216 8.968C40.655 8.70133 40.3136 8.568 39.8976 8.568C39.5883 8.568 39.295 8.64267 39.0176 8.792C38.7403 8.93067 38.511 9.16533 38.3296 9.496C38.1483 9.816 38.0576 10.2427 38.0576 10.776V15H35.8656ZM49.4199 6.84C50.2199 6.84 50.9292 7.00533 51.5479 7.336C52.1665 7.66667 52.6465 8.14133 52.9879 8.76C53.3399 9.37867 53.5159 10.1253 53.5159 11C53.5159 11.8747 53.3399 12.6213 52.9879 13.24C52.6465 13.8587 52.1665 14.3333 51.5479 14.664C50.9292 14.9947 50.2199 15.16 49.4199 15.16C48.6092 15.16 47.8945 14.9947 47.2759 14.664C46.6679 14.3333 46.1879 13.8587 45.8359 13.24C45.4945 12.6213 45.3239 11.8747 45.3239 11C45.3239 10.1253 45.4945 9.37867 45.8359 8.76C46.1879 8.14133 46.6679 7.66667 47.2759 7.336C47.8945 7.00533 48.6092 6.84 49.4199 6.84ZM49.4199 8.472C48.8225 8.472 48.3532 8.68533 48.0119 9.112C47.6812 9.528 47.5159 10.1573 47.5159 11C47.5159 11.8427 47.6812 12.4773 48.0119 12.904C48.3532 13.32 48.8225 13.528 49.4199 13.528C50.0065 13.528 50.4652 13.32 50.7959 12.904C51.1372 12.4773 51.3079 11.8427 51.3079 11C51.3079 10.1573 51.1372 9.528 50.7959 9.112C50.4652 8.68533 50.0065 8.472 49.4199 8.472ZM58.998 6.84C59.798 6.84 60.5073 7.00533 61.126 7.336C61.7447 7.66667 62.2247 8.14133 62.566 8.76C62.918 9.37867 63.094 10.1253 63.094 11C63.094 11.8747 62.918 12.6213 62.566 13.24C62.2247 13.8587 61.7447 14.3333 61.126 14.664C60.5073 14.9947 59.798 15.16 58.998 15.16C58.1873 15.16 57.4727 14.9947 56.854 14.664C56.246 14.3333 55.766 13.8587 55.414 13.24C55.0727 12.6213 54.902 11.8747 54.902 11C54.902 10.1253 55.0727 9.37867 55.414 8.76C55.766 8.14133 56.246 7.66667 56.854 7.336C57.4727 7.00533 58.1873 6.84 58.998 6.84ZM58.998 8.472C58.4007 8.472 57.9313 8.68533 57.59 9.112C57.2593 9.528 57.094 10.1573 57.094 11C57.094 11.8427 57.2593 12.4773 57.59 12.904C57.9313 13.32 58.4007 13.528 58.998 13.528C59.5847 13.528 60.0433 13.32 60.374 12.904C60.7153 12.4773 60.886 11.8427 60.886 11C60.886 10.1573 60.7153 9.528 60.374 9.112C60.0433 8.68533 59.5847 8.472 58.998 8.472ZM67.1201 3.496V10.648L70.5761 7H73.0721L70.0641 10.136L73.2641 15H70.7841L68.5761 11.464L67.1201 13.016V15H64.9281V3.496H67.1201ZM77.1865 15.16C76.5252 15.16 75.9332 14.9947 75.4105 14.664C74.8985 14.3333 74.4932 13.864 74.1945 13.256C73.9065 12.6373 73.7625 11.8907 73.7625 11.016C73.7625 10.1307 73.9172 9.37867 74.2265 8.76C74.5358 8.13067 74.9518 7.656 75.4745 7.336C76.0078 7.00533 76.6052 6.84 77.2665 6.84C77.8425 6.84 78.3385 6.97867 78.7545 7.256C79.1705 7.53333 79.4852 7.90133 79.6985 8.36V3.496H81.8905V15H79.9225L79.8265 13.448C79.6025 13.9813 79.2558 14.4027 78.7865 14.712C78.3172 15.0107 77.7838 15.16 77.1865 15.16ZM77.8265 13.48C78.3918 13.48 78.8452 13.2613 79.1865 12.824C79.5278 12.376 79.6985 11.7467 79.6985 10.936C79.6985 10.168 79.5278 9.576 79.1865 9.16C78.8558 8.73333 78.4132 8.52 77.8585 8.52C77.2612 8.52 76.7918 8.73333 76.4505 9.16C76.1198 9.576 75.9545 10.1893 75.9545 11C75.9545 11.8107 76.1198 12.4293 76.4505 12.856C76.7812 13.272 77.2398 13.48 77.8265 13.48ZM87.9057 15.16C86.6471 15.16 85.6391 14.7973 84.8817 14.072C84.1244 13.336 83.7457 12.312 83.7457 11C83.7457 10.1253 83.9164 9.37867 84.2577 8.76C84.5991 8.14133 85.0737 7.66667 85.6817 7.336C86.3004 7.00533 87.0044 6.84 87.7937 6.84C88.6044 6.84 89.2924 7.00533 89.8577 7.336C90.4231 7.656 90.8551 8.09867 91.1537 8.664C91.4524 9.21867 91.6017 9.85333 91.6017 10.568C91.6017 10.7813 91.5964 10.984 91.5857 11.176C91.5751 11.368 91.5591 11.5387 91.5377 11.688H85.8897C85.9751 12.3067 86.1884 12.7707 86.5297 13.08C86.8817 13.3787 87.3351 13.528 87.8897 13.528C88.3591 13.528 88.7377 13.4373 89.0257 13.256C89.3137 13.0747 89.5377 12.824 89.6977 12.504L91.4417 13.176C91.1857 13.8053 90.7377 14.296 90.0977 14.648C89.4577 14.9893 88.7271 15.16 87.9057 15.16ZM87.7777 8.456C86.7431 8.456 86.1191 9.02667 85.9057 10.168H89.5057C89.4417 9.61333 89.2604 9.192 88.9617 8.904C88.6737 8.60533 88.2791 8.456 87.7777 8.456ZM97.0914 6.84C98.158 6.84 98.9847 7.06933 99.5714 7.528C100.169 7.98667 100.563 8.54133 100.755 9.192L98.7074 9.928C98.494 8.95733 97.966 8.472 97.1234 8.472C96.5154 8.472 96.0407 8.68533 95.6994 9.112C95.3687 9.53867 95.2034 10.1733 95.2034 11.016C95.2034 11.8693 95.374 12.504 95.7154 12.92C96.0674 13.3253 96.542 13.528 97.1394 13.528C98.0674 13.528 98.622 13.0533 98.8034 12.104L100.787 12.744C100.606 13.4587 100.201 14.04 99.5714 14.488C98.9527 14.936 98.1474 15.16 97.1554 15.16C96.3234 15.16 95.5927 14.9947 94.9634 14.664C94.3447 14.3333 93.8647 13.8587 93.5234 13.24C93.182 12.6213 93.0114 11.8747 93.0114 11C93.0114 10.1253 93.182 9.37867 93.5234 8.76C93.8754 8.14133 94.3554 7.66667 94.9634 7.336C95.582 7.00533 96.2914 6.84 97.0914 6.84ZM104.683 3.496V10.648L108.139 7H110.635L107.627 10.136L110.827 15H108.347L106.139 11.464L104.683 13.016V15H102.491V3.496H104.683Z" fill="black"/>
<path d="M120.5 15C122.938 15 124.383 13.4922 124.383 10.9922C124.383 8.5 122.938 7 120.555 7H117.789V15H120.5ZM119.238 13.7461V8.25391H120.473C122.098 8.25391 122.945 9.16016 122.945 10.9922C122.945 12.832 122.098 13.7461 120.43 13.7461H119.238ZM132.908 11C132.908 8.41406 131.33 6.89062 129.232 6.89062C127.131 6.89062 125.557 8.41406 125.557 11C125.557 13.582 127.131 15.1094 129.232 15.1094C131.33 15.1094 132.908 13.5859 132.908 11ZM131.451 11C131.451 12.8203 130.537 13.8086 129.232 13.8086C127.932 13.8086 127.014 12.8203 127.014 11C127.014 9.17969 127.932 8.19141 129.232 8.19141C130.537 8.19141 131.451 9.17969 131.451 11ZM141.126 9.69922C140.88 7.92187 139.513 6.89062 137.739 6.89062C135.649 6.89062 134.075 8.41406 134.075 11C134.075 13.582 135.63 15.1094 137.739 15.1094C139.642 15.1094 140.903 13.8789 141.126 12.3516L139.665 12.3437C139.481 13.2812 138.716 13.8086 137.759 13.8086C136.462 13.8086 135.532 12.8359 135.532 11C135.532 9.19531 136.454 8.19141 137.763 8.19141C138.735 8.19141 139.497 8.74219 139.665 9.69922H141.126ZM146.801 9.19922H148.195C148.168 7.84766 147.016 6.89062 145.313 6.89062C143.633 6.89062 142.371 7.83594 142.375 9.25C142.375 10.3984 143.191 11.0586 144.508 11.3984L145.418 11.6328C146.281 11.8516 146.852 12.1211 146.855 12.7422C146.852 13.4258 146.203 13.8828 145.258 13.8828C144.352 13.8828 143.648 13.4766 143.59 12.6367H142.164C142.223 14.2266 143.406 15.1211 145.27 15.1211C147.188 15.1211 148.301 14.1641 148.305 12.7539C148.301 11.3672 147.156 10.7344 145.953 10.4492L145.203 10.2617C144.547 10.1055 143.836 9.82812 143.844 9.16016C143.848 8.55859 144.387 8.11719 145.293 8.11719C146.156 8.11719 146.727 8.51953 146.801 9.19922Z" fill="#2F80ED"/>
</svg>
